<svg width="60" height="60" viewBox="0 0 60 60" fill="none" xmlns="http://www.w3.org/2000/svg"><svg width="60" height="60" viewBox="0 0 60 60" fill="none" xmlns="http://www.w3.org/2000/svg">

  <!-- High contrast circular icon version -->  <!-- Circular icon version for app icons, favicons, etc. -->

  <defs>  <defs>

    <linearGradient id="iconGradient" x1="0%" y1="0%" x2="100%" y2="100%">    <linearGradient id="iconGradient" x1="0%" y1="0%" x2="100%" y2="100%">

      <stop offset="0%" style="stop-color:#1e40af;stop-opacity:1" />      <stop offset="0%" style="stop-color:#667eea;stop-opacity:1" />

      <stop offset="100%" style="stop-color:#7c3aed;stop-opacity:1" />      <stop offset="100%" style="stop-color:#764ba2;stop-opacity:1" />

    </linearGradient>    </linearGradient>

  </defs>    <linearGradient id="iconWaveGradient" x1="0%" y1="0%" x2="100%" y2="0%">

        <stop offset="0%" style="stop-color:#00d4ff;stop-opacity:1" />

  <!-- Strong background circle with border -->      <stop offset="50%" style="stop-color:#5b73ff;stop-opacity:1" />

  <circle cx="30" cy="30" r="28" fill="url(#iconGradient)" stroke="#0f172a" stroke-width="2"/>      <stop offset="100%" style="stop-color:#667eea;stop-opacity:1" />

      </linearGradient>

  <!-- Bold "F" letter in center -->    <filter id="glow">

  <g transform="translate(30, 30)" fill="none" stroke="#ffffff" stroke-width="5" stroke-linecap="round" stroke-linejoin="round">      <feGaussianBlur stdDeviation="2" result="coloredBlur"/>

    <!-- F shape -->      <feMerge> 

    <path d="M-8 -12 L-8 12 M-8 -12 L6 -12 M-8 -2 L2 -2"/>        <feMergeNode in="coloredBlur"/>

  </g>        <feMergeNode in="SourceGraphic"/>

        </feMerge>

  <!-- Dynamic flow lines around the F -->    </filter>

  <g transform="translate(30, 30)" stroke="#ffffff" fill="none" stroke-width="3" stroke-linecap="round" opacity="0.9">  </defs>

    <!-- Flowing curves around the letter -->  

    <path d="M-22 -8 Q-14 -16, -6 -8"/>  <!-- Background circle -->

    <path d="M6 -8 Q14 -16, 22 -8"/>  <circle cx="30" cy="30" r="28" fill="url(#iconGradient)" filter="url(#glow)"/>

    <path d="M-22 8 Q-14 16, -6 8"/>  

    <path d="M6 8 Q14 16, 22 8"/>  <!-- Dynamic wave pattern in the center -->

  </g>  <g transform="translate(30, 30)">

      <!-- Main central wave -->

  <!-- High contrast connection dots -->    <path d="M-18 0 Q-9 -8, 0 0 T18 0" stroke="#ffffff" stroke-width="3" fill="none" stroke-linecap="round" opacity="0.9"/>

  <g fill="#ffffff">    <path d="M-18 6 Q-9 -2, 0 6 T18 6" stroke="#ffffff" stroke-width="2.5" fill="none" stroke-linecap="round" opacity="0.7"/>

    <circle cx="50" cy="10" r="3"/>    <path d="M-18 -6 Q-9 -14, 0 -6 T18 -6" stroke="#ffffff" stroke-width="2.5" fill="none" stroke-linecap="round" opacity="0.7"/>

    <circle cx="10" cy="50" r="2.5"/>    

    <circle cx="50" cy="50" r="3"/>    <!-- Smaller accent waves -->

    <circle cx="10" cy="10" r="2.5"/>    <path d="M-15 12 Q-7.5 4, 0 12 T15 12" stroke="#ffffff" stroke-width="2" fill="none" stroke-linecap="round" opacity="0.5"/>

  </g>    <path d="M-15 -12 Q-7.5 -20, 0 -12 T15 -12" stroke="#ffffff" stroke-width="2" fill="none" stroke-linecap="round" opacity="0.5"/>

    </g>

  <!-- Sharp accent lines for movement -->  

  <g stroke="#ffffff" stroke-width="2" opacity="0.7" stroke-linecap="round">  <!-- Social connection dots around the circle -->

    <path d="M44 16 L48 12"/>  <g fill="#ffffff">

    <path d="M16 44 L12 48"/>    <circle cx="45" cy="15" r="2" opacity="0.6"/>

    <path d="M44 44 L48 48"/>    <circle cx="15" cy="45" r="1.5" opacity="0.5"/>

    <path d="M16 16 L12 12"/>    <circle cx="45" cy="45" r="1.8" opacity="0.7"/>

  </g>    <circle cx="15" cy="15" r="1.2" opacity="0.4"/>

</svg>  </g>
</svg>