<!-- Flux Logo - Dark Theme Version -->
<svg width="120" height="40" viewBox="0 0 120 40" fill="none" xmlns="http://www.w3.org/2000/svg">
  <defs>
    <linearGradient id="darkFluxGradient" x1="0%" y1="0%" x2="100%" y2="100%">
      <stop offset="0%" style="stop-color:#ffffff;stop-opacity:1" />
      <stop offset="100%" style="stop-color:#e2e8f0;stop-opacity:1" />
    </linearGradient>
    <linearGradient id="darkWaveGradient" x1="0%" y1="0%" x2="100%" y2="0%">
      <stop offset="0%" style="stop-color:#60a5fa;stop-opacity:1" />
      <stop offset="50%" style="stop-color:#a855f7;stop-opacity:1" />
      <stop offset="100%" style="stop-color:#06b6d4;stop-opacity:1" />
    </linearGradient>
  </defs>
  
  <!-- Wave/Flow symbol -->
  <g id="flux-symbol-dark">
    <path d="M8 20 Q15 12, 22 20 T36 20" stroke="url(#darkWaveGradient)" stroke-width="3" fill="none" stroke-linecap="round"/>
    <path d="M8 26 Q15 18, 22 26 T36 26" stroke="url(#darkWaveGradient)" stroke-width="2.5" fill="none" stroke-linecap="round" opacity="0.7"/>
    <path d="M8 14 Q15 6, 22 14 T36 14" stroke="url(#darkWaveGradient)" stroke-width="2" fill="none" stroke-linecap="round" opacity="0.5"/>
  </g>
  
  <!-- "FLUX" text in white/light colors -->
  <g id="flux-text-dark">
    <!-- F -->
    <path d="M50 12 L50 28 M50 12 L58 12 M50 20 L56 20" stroke="url(#darkFluxGradient)" stroke-width="2.5" fill="none" stroke-linecap="round" stroke-linejoin="round"/>
    
    <!-- L -->
    <path d="M62 12 L62 28 L70 28" stroke="url(#darkFluxGradient)" stroke-width="2.5" fill="none" stroke-linecap="round" stroke-linejoin="round"/>
    
    <!-- U -->
    <path d="M74 12 L74 24 Q74 28, 78 28 Q82 28, 82 24 L82 12" stroke="url(#darkFluxGradient)" stroke-width="2.5" fill="none" stroke-linecap="round"/>
    
    <!-- X -->
    <path d="M86 12 L94 28 M94 12 L86 28" stroke="url(#darkFluxGradient)" stroke-width="2.5" fill="none" stroke-linecap="round"/>
  </g>
  
  <!-- Social connection dots -->
  <g id="connection-dots-dark" fill="url(#darkWaveGradient)">
    <circle cx="100" cy="16" r="2" opacity="0.8"/>
    <circle cx="106" cy="20" r="1.5" opacity="0.6"/>
    <circle cx="100" cy="24" r="1.8" opacity="0.7"/>
    <circle cx="112" cy="18" r="1.2" opacity="0.5"/>
    
    <!-- Connection lines -->
    <path d="M100 16 L106 20 M106 20 L100 24 M106 20 L112 18" stroke="url(#darkWaveGradient)" stroke-width="1" opacity="0.4"/>
  </g>
</svg>